<svg width="76" height="17" viewBox="0 0 76 17" fill="none" xmlns="http://www.w3.org/2000/svg">
<rect width="75.4566" height="17" rx="4" fill="#BF944F"/>
<path d="M4.00036 7.70525V7.68317C4.00036 5.50823 5.67856 3.68652 8.0522 3.68652C10.4258 3.68652 12.0816 5.48616 12.0816 7.6611V7.68317C12.0816 9.85811 10.4034 11.6798 8.02976 11.6798C5.65613 11.6798 4.00036 9.88019 4.00036 7.70525ZM10.6576 7.70525V7.68317C10.6576 6.18158 9.56483 4.94527 8.03012 4.94527C6.49541 4.94527 5.42468 6.1595 5.42468 7.6611V7.68317C5.42468 9.18476 6.51749 10.4211 8.0522 10.4211C9.5869 10.4211 10.6576 9.20649 10.6576 7.70525Z" fill="white"/>
<path d="M13.2285 5.7181H14.5756V6.68949C15.0061 6.08237 15.6132 5.59668 16.5629 5.59668C17.932 5.59668 19.2676 6.67846 19.2676 8.62159V8.64366C19.2676 10.5758 17.9427 11.6686 16.5629 11.6686C15.5915 11.6686 14.984 11.1829 14.5756 10.6416V13.3133H13.2285V5.7181ZM17.9096 8.64366V8.62159C17.9096 7.49566 17.1369 6.75572 16.2424 6.75572C15.3372 6.75572 14.5421 7.5067 14.5421 8.62159V8.64366C14.5421 9.75855 15.3369 10.5095 16.2424 10.5095C17.1586 10.5095 17.9096 9.79202 17.9096 8.64366Z" fill="white"/>
<path d="M20.0503 8.6547V8.63262C20.0503 6.96545 21.2318 5.59668 22.8986 5.59668C24.7534 5.59668 25.6917 7.05411 25.6917 8.73197C25.6917 8.85339 25.6806 8.97481 25.6696 9.10728H21.3859C21.5294 10.0569 22.2028 10.5868 23.0642 10.5868C23.7154 10.5868 24.1794 10.3439 24.643 9.89137L25.4268 10.5868C24.8748 11.2491 24.1132 11.6796 23.0421 11.6796C21.3532 11.6796 20.0503 10.4543 20.0503 8.6547ZM24.3671 8.2242C24.2788 7.36319 23.771 6.68949 22.8879 6.68949C22.071 6.68949 21.497 7.31868 21.3753 8.2242H24.3671Z" fill="white"/>
<path d="M26.7505 5.7181H28.0975V6.61222C28.4728 6.07134 29.0137 5.59668 29.9192 5.59668C31.2332 5.59668 31.9948 6.47976 31.9948 7.82681V11.5475H30.6588V8.2356C30.6588 7.33044 30.2063 6.81127 29.4111 6.81127C28.6384 6.81127 28.0975 7.35216 28.0975 8.25767V11.5479H26.7505V5.71882V5.7181Z" fill="white"/>
<path d="M38.8161 3.76367H40.0745L43.4747 11.5469H42.0393L41.2556 9.68102H37.6015L36.8067 11.5469H35.4155L38.8161 3.76367ZM40.7592 8.47782L39.4232 5.38669L38.0982 8.47782H40.7592Z" fill="white"/>
<path d="M43.7163 8.66574V8.64366C43.7163 6.98753 44.9971 5.59668 46.7526 5.59668C47.8454 5.59668 48.5302 6.0051 49.0821 6.60118L48.2432 7.4953C47.8347 7.07584 47.4042 6.76676 46.7416 6.76676C45.7702 6.76676 45.0523 7.60568 45.0523 8.62158V8.64366C45.0523 9.68128 45.7698 10.5095 46.7968 10.5095C47.426 10.5095 47.8789 10.2225 48.3094 9.79202L49.1152 10.5868C48.5412 11.227 47.8675 11.6796 46.7305 11.6796C44.9971 11.6796 43.7163 10.3219 43.7163 8.66574Z" fill="white"/>
<path d="M49.578 8.66574V8.64366C49.578 6.98753 50.8588 5.59668 52.6139 5.59668C53.7071 5.59668 54.3915 6.0051 54.9434 6.60118L54.1045 7.4953C53.6961 7.07584 53.2656 6.76676 52.6029 6.76676C51.6315 6.76676 50.9137 7.60568 50.9137 8.62158V8.64366C50.9137 9.68128 51.6312 10.5095 52.6581 10.5095C53.2873 10.5095 53.7399 10.2225 54.1704 9.79202L54.9762 10.5868C54.4022 11.227 53.7285 11.6796 52.5915 11.6796C50.8581 11.6796 49.5776 10.3219 49.5776 8.66574H49.578Z" fill="white"/>
<path d="M55.4395 8.6547V8.63262C55.4395 6.96545 56.6206 5.59668 58.2877 5.59668C60.1426 5.59668 61.0808 7.05411 61.0808 8.73197C61.0808 8.85339 61.0698 8.97481 61.0588 9.10728H56.7751C56.9186 10.0569 57.592 10.5868 58.4533 10.5868C59.1046 10.5868 59.5686 10.3439 60.0322 9.89137L60.8163 10.5868C60.2643 11.2491 59.5023 11.6796 58.4316 11.6796C56.7424 11.6796 55.4398 10.4543 55.4398 8.6547H55.4395ZM59.7562 8.2242C59.6679 7.36319 59.1601 6.68949 58.2767 6.68949C57.4599 6.68949 56.8855 7.31868 56.7641 8.2242H59.7559H59.7562Z" fill="white"/>
<path d="M61.6758 10.7849L62.2719 9.87974C62.9121 10.3544 63.5854 10.5972 64.1819 10.5972C64.7559 10.5972 65.087 10.3544 65.087 9.96804V9.94596C65.087 9.49339 64.4689 9.33885 63.7845 9.12912C62.9235 8.88627 61.9628 8.53304 61.9628 7.42883V7.40675C61.9628 6.29151 62.879 5.61816 64.0384 5.61816C64.7669 5.61816 65.562 5.87205 66.1802 6.28047L65.6504 7.23014C65.0874 6.88794 64.491 6.67821 64.0053 6.67821C63.4864 6.67821 63.1884 6.9321 63.1884 7.25221V7.2743C63.1884 7.7048 63.8176 7.88141 64.502 8.10218C65.352 8.36711 66.3127 8.75345 66.3127 9.80246V9.82454C66.3127 11.0498 65.363 11.6573 64.1488 11.6573C63.3205 11.6573 62.4043 11.3703 61.6758 10.7849Z" fill="white"/>
<path d="M66.8198 10.7849L67.4159 9.87974C68.0561 10.3544 68.7295 10.5972 69.3259 10.5972C69.8999 10.5972 70.2311 10.3544 70.2311 9.96804V9.94596C70.2311 9.49339 69.6129 9.33885 68.9285 9.12912C68.0675 8.88627 67.1068 8.53304 67.1068 7.42883V7.40675C67.1068 6.29151 68.023 5.61816 69.1824 5.61816C69.911 5.61816 70.7061 5.87205 71.3242 6.28047L70.7944 7.23014C70.2314 6.88794 69.635 6.67821 69.1493 6.67821C68.6305 6.67821 68.3324 6.9321 68.3324 7.25221V7.2743C68.3324 7.7048 68.9616 7.88141 69.646 8.10218C70.496 8.36711 71.4567 8.75345 71.4567 9.80246V9.82454C71.4567 11.0498 70.507 11.6573 69.2928 11.6573C68.4646 11.6573 67.5484 11.3703 66.8198 10.7849Z" fill="white"/>
</svg>
